<?xml version="1.0" standalone="no"?>
<!DOCTYPE svg PUBLIC "-//W3C//DTD SVG 20010904//EN"
 "http://www.w3.org/TR/2001/REC-SVG-20010904/DTD/svg10.dtd">
<svg version="1.0" xmlns="http://www.w3.org/2000/svg"
 width="300.000000pt" height="300.000000pt" viewBox="0 0 300.000000 300.000000"
 preserveAspectRatio="xMidYMid meet">
<metadata>
Created by potrace 1.11, written by Peter Selinger 2001-2013
</metadata>
<g transform="translate(0.000000,300.000000) scale(0.100000,-0.100000)"
fill="#000000" stroke="none">
<path d="M135 2981 c-22 -10 -55 -34 -73 -55 -66 -76 -62 25 -62 -1425 0
-1298 1 -1317 21 -1360 21 -47 63 -91 114 -119 28 -16 139 -17 1366 -17 l1336
0 48 30 c27 17 63 50 80 74 l30 43 3 1331 c2 1190 1 1336 -13 1373 -19 51 -62
97 -114 124 -40 20 -53 20 -1368 20 -1263 0 -1330 -1 -1368 -19z"/>
</g>
</svg>
